<?xml version="1.0" encoding="utf-8"?>
<!-- Generator: Adobe Illustrator 24.0.0, SVG Export Plug-In . SVG Version: 6.00 Build 0)  -->
<svg version="1.1" id="Layer_1" xmlns="http://www.w3.org/2000/svg" xmlns:xlink="http://www.w3.org/1999/xlink" x="0px" y="0px"
	 viewBox="0 0 500 500" style="enable-background:new 0 0 500 500;" xml:space="preserve">
<style type="text/css">
	.st0{fill:#FBAE47;}
</style>
<path class="st0" d="M469.4,357.3c0-9.9,8-17.9,17.9-17.9v-17.9c-9.9,0-17.9-8-17.9-17.9c0-9.9,8-17.9,17.9-17.9v-17.9
	c-9.9,0-17.9-8-17.9-17.9c0-9.9,8-17.9,17.9-17.9v-17.9c-9.9,0-17.9-8-17.9-17.9s8-17.9,17.9-17.9v-17.9c-9.9,0-17.9-8-17.9-17.9
	H62.2c-27.6,0-50,22.4-50,50v164.7H469.4z"/>
</svg>
