<?xml version="1.0" encoding="utf-8"?>
<!-- Generator: Adobe Illustrator 24.0.0, SVG Export Plug-In . SVG Version: 6.00 Build 0)  -->
<svg version="1.1" id="Layer_1" xmlns="http://www.w3.org/2000/svg" xmlns:xlink="http://www.w3.org/1999/xlink" x="0px" y="0px"
	 viewBox="0 0 959 500" style="enable-background:new 0 0 959 500;" xml:space="preserve">
<style type="text/css">
	.st0{fill:#FEFDED;}
</style>
<path class="st0" d="M31.9,142.6c0,9.9-8,17.9-17.9,17.9v17.9c9.9,0,17.9,8,17.9,17.9c0,9.9-8,17.9-17.9,17.9v17.9
	c9.9,0,17.9,8,17.9,17.9c0,9.9-8,17.9-17.9,17.9v17.9c9.9,0,17.9,8,17.9,17.9s-8,17.9-17.9,17.9v17.9c9.9,0,17.9,8,17.9,17.9h912.5
	V212.4c0-38.6-31.3-69.8-69.8-69.8H31.9z"/>
</svg>
