<?xml version="1.0" encoding="utf-8"?>
<!-- Generator: Adobe Illustrator 24.0.0, SVG Export Plug-In . SVG Version: 6.00 Build 0)  -->
<svg version="1.1" id="Layer_1" xmlns="http://www.w3.org/2000/svg" xmlns:xlink="http://www.w3.org/1999/xlink" x="0px" y="0px"
	 viewBox="0 0 283.5 283.5" style="enable-background:new 0 0 283.5 283.5;" xml:space="preserve">
<g>
	<path d="M132.1,135.2c0.6-2.1,0.9-5.1,0.9-8.9c0-3.8-0.3-6.8-0.9-8.9c-0.6-2.1-1.7-4.1-3.3-5.8c-3-3.3-7.2-4.9-12.3-4.9
		c-5.2,0-9.3,1.6-12.3,4.9c-1.6,1.7-2.7,3.6-3.3,5.8s-0.9,5.1-0.9,8.9s0.3,6.8,0.9,8.9s1.7,4.1,3.3,5.8c0.3,0.3,0.5,0.5,0.8,0.8
		c-0.3,0.3-0.5,0.5-0.8,0.8c-1.6,1.7-2.7,3.6-3.3,5.8s-0.9,5.1-0.9,8.9s0.3,6.8,0.9,8.9s1.7,4.1,3.3,5.8c3,3.3,7.2,4.9,12.3,4.9
		c5.2,0,9.3-1.6,12.3-4.9c1.6-1.7,2.7-3.6,3.3-5.8c0.6-2.1,0.9-5.1,0.9-8.9c0-3.8-0.3-6.8-0.9-8.9c-0.6-2.1-1.7-4.1-3.3-5.8
		c-0.3-0.3-0.5-0.5-0.8-0.8c0.3-0.3,0.5-0.5,0.8-0.8C130.3,139.3,131.4,137.4,132.1,135.2z M112,120.4c0.7-2.1,2.2-3.1,4.3-3.1
		c2.2,0,3.6,1.1,4.3,3.1c0.3,1.1,0.5,3.1,0.5,5.9s-0.2,4.8-0.5,5.9c-0.7,2.1-2.2,3.1-4.3,3.1c-2.2,0-3.6-1-4.3-3.1
		c-0.3-1.1-0.5-3.1-0.5-5.9C111.5,123.4,111.7,121.5,112,120.4z M120.7,163.1c-0.7,2.1-2.2,3.1-4.3,3.1c-2.2,0-3.6-1-4.3-3.1
		c-0.3-1.1-0.5-3.1-0.5-5.9c0-2.9,0.2-4.8,0.5-5.9c0.7-2.1,2.2-3.1,4.3-3.1c2.2,0,3.6,1.1,4.3,3.1c0.3,1.1,0.5,3.1,0.5,5.9
		S121.1,162,120.7,163.1z"/>
	<path d="M168,142.5c-0.4-0.5-0.9-0.9-1.4-1.3c2.3-2.5,3.4-5.6,3.4-9.3v-25.3h-9.6v25.1c0,1.8-0.5,3.2-1.4,4.2
		c-0.9,1-2.2,1.5-3.8,1.5s-2.9-0.5-3.8-1.5c-0.9-1-1.4-2.4-1.4-4.2v-25.1h-9.6V132c0,3.9,1.3,7.1,3.8,9.6c-0.3,0.3-0.6,0.6-0.9,0.9
		c-1.6,1.7-2.7,3.6-3.3,5.8s-0.9,5.1-0.9,8.9s0.3,6.8,0.9,8.9s1.7,4.1,3.3,5.8c3,3.3,7.2,4.9,12.3,4.9s9.3-1.6,12.3-4.9
		c1.6-1.7,2.7-3.6,3.3-5.8c0.6-2.1,0.9-5.1,0.9-8.9c0-3.8-0.3-6.8-0.9-8.9C170.7,146.1,169.6,144.2,168,142.5z M160,163.1
		c-0.7,2.1-2.2,3.1-4.4,3.1s-3.6-1-4.4-3.1c-0.3-1.1-0.5-3.1-0.5-5.9c0-2.9,0.2-4.8,0.5-5.9c0.7-2.1,2.2-3.1,4.4-3.1
		s3.6,1.1,4.4,3.1c0.3,1.1,0.5,3.1,0.5,5.9C160.5,160.1,160.3,162,160,163.1z"/>
	<polygon points="76.3,137.6 65.5,137.6 65.5,176.4 94.7,176.4 94.7,167.9 76.3,167.9 	"/>
	<polygon points="202.5,153.3 217.5,137.6 204.3,137.6 191.6,151.3 191.6,137.6 180.9,137.6 180.9,176.4 191.6,176.4 191.6,164.2 
		195.3,160.5 205.4,176.4 218,176.4 	"/>
</g>
</svg>
